<mxfile host="app.diagrams.net" modified="2021-04-06T05:26:09.929Z" agent="5.0 (Windows NT 10.0; WOW64) AppleWebKit/537.36 (KHTML, like Gecko) Chrome/86.0.4240.198 Safari/537.36" etag="CnZ-AZ-UX-PDTpIJP77X" version="14.5.7" type="github">
  <diagram id="kgpKYQtTHZ0yAKxKKP6v" name="Page-1">
    <mxGraphModel dx="1303" dy="838" grid="0" gridSize="10" guides="1" tooltips="1" connect="1" arrows="1" fold="1" page="1" pageScale="1" pageWidth="850" pageHeight="1100" background="#FFFFFF" math="0" shadow="0">
      <root>
        <mxCell id="0" />
        <mxCell id="1" parent="0" />
        <mxCell id="3nuBFxr9cyL0pnOWT2aG-5" value="：UserPortalController" style="shape=umlLifeline;perimeter=lifelinePerimeter;container=1;collapsible=0;recursiveResize=0;rounded=0;shadow=0;strokeWidth=1;" parent="1" vertex="1">
          <mxGeometry x="288" y="80" width="200" height="917" as="geometry" />
        </mxCell>
        <mxCell id="3nuBFxr9cyL0pnOWT2aG-6" value="" style="points=[];perimeter=orthogonalPerimeter;rounded=0;shadow=0;strokeWidth=1;" parent="3nuBFxr9cyL0pnOWT2aG-5" vertex="1">
          <mxGeometry x="95" y="85" width="10" height="254" as="geometry" />
        </mxCell>
        <mxCell id="xPqvD2hYf9ggYyajVw-1-14" value="" style="endArrow=classic;html=1;edgeStyle=elbowEdgeStyle;jumpStyle=none;rounded=0;" parent="3nuBFxr9cyL0pnOWT2aG-5" edge="1">
          <mxGeometry width="50" height="50" relative="1" as="geometry">
            <mxPoint x="105" y="117" as="sourcePoint" />
            <mxPoint x="105" y="175" as="targetPoint" />
            <Array as="points">
              <mxPoint x="150" y="117" />
              <mxPoint x="160" y="145" />
            </Array>
          </mxGeometry>
        </mxCell>
        <mxCell id="xPqvD2hYf9ggYyajVw-1-16" value="&lt;font color=&quot;#3399ff&quot;&gt;Alt&lt;/font&gt;" style="shape=umlFrame;whiteSpace=wrap;html=1;width=56;height=28;boundedLbl=1;verticalAlign=middle;align=left;spacingLeft=5;strokeColor=#66B2FF;" parent="3nuBFxr9cyL0pnOWT2aG-5" vertex="1">
          <mxGeometry x="-120" y="196" width="310" height="164" as="geometry" />
        </mxCell>
        <mxCell id="xPqvD2hYf9ggYyajVw-1-18" value="" style="endArrow=none;dashed=1;dashPattern=1 3;strokeWidth=2;exitX=0.006;exitY=0.71;exitDx=0;exitDy=0;exitPerimeter=0;entryX=1.005;entryY=0.614;entryDx=0;entryDy=0;entryPerimeter=0;strokeColor=#007FFF;" parent="3nuBFxr9cyL0pnOWT2aG-5" target="xPqvD2hYf9ggYyajVw-1-16" edge="1">
          <mxGeometry width="50" height="50" relative="1" as="geometry">
            <mxPoint x="-128.14" y="298.44000000000005" as="sourcePoint" />
            <mxPoint x="181.86000000000013" y="298.44000000000005" as="targetPoint" />
          </mxGeometry>
        </mxCell>
        <mxCell id="xPqvD2hYf9ggYyajVw-1-24" value="&lt;span style=&quot;background-color: rgb(255 , 255 , 255)&quot;&gt;2，返回登录界面，提示出错信息&lt;/span&gt;" style="html=1;verticalAlign=bottom;labelBackgroundColor=none;endArrow=open;endFill=0;dashed=1;" parent="3nuBFxr9cyL0pnOWT2aG-5" target="xPqvD2hYf9ggYyajVw-1-5" edge="1">
          <mxGeometry width="160" relative="1" as="geometry">
            <mxPoint x="96" y="275" as="sourcePoint" />
            <mxPoint x="-64" y="275" as="targetPoint" />
          </mxGeometry>
        </mxCell>
        <mxCell id="xPqvD2hYf9ggYyajVw-1-26" value="[校验通过]" style="text;html=1;strokeColor=none;fillColor=none;align=center;verticalAlign=middle;whiteSpace=wrap;rounded=0;fontColor=#007FFF;" parent="3nuBFxr9cyL0pnOWT2aG-5" vertex="1">
          <mxGeometry x="100" y="300" width="75" height="20" as="geometry" />
        </mxCell>
        <mxCell id="xPqvD2hYf9ggYyajVw-1-25" value="[校验不通过]" style="text;html=1;strokeColor=none;fillColor=none;align=center;verticalAlign=middle;whiteSpace=wrap;rounded=0;fontColor=#007FFF;" parent="3nuBFxr9cyL0pnOWT2aG-5" vertex="1">
          <mxGeometry x="-120" y="230" width="75" height="20" as="geometry" />
        </mxCell>
        <mxCell id="3nuBFxr9cyL0pnOWT2aG-8" value="1，请求登录，输入账号、密码" style="verticalAlign=bottom;endArrow=block;entryX=0;entryY=0;shadow=0;strokeWidth=1;" parent="1" source="xPqvD2hYf9ggYyajVw-1-5" target="3nuBFxr9cyL0pnOWT2aG-6" edge="1">
          <mxGeometry relative="1" as="geometry">
            <mxPoint x="125" y="160.0000000000001" as="sourcePoint" />
          </mxGeometry>
        </mxCell>
        <mxCell id="xPqvD2hYf9ggYyajVw-1-1" value="&lt;font style=&quot;vertical-align: inherit&quot;&gt;&lt;font style=&quot;vertical-align: inherit&quot;&gt;：用户&lt;/font&gt;&lt;/font&gt;" style="shape=umlActor;verticalLabelPosition=bottom;verticalAlign=top;html=1;" parent="1" vertex="1">
          <mxGeometry x="142.5" y="60" width="30" height="60" as="geometry" />
        </mxCell>
        <mxCell id="xPqvD2hYf9ggYyajVw-1-5" value="" style="shape=umlLifeline;perimeter=lifelinePerimeter;html=1;container=1;collapsible=0;recursiveResize=0;outlineConnect=0;size=0;" parent="1" vertex="1">
          <mxGeometry x="80" y="140" width="155" height="864" as="geometry" />
        </mxCell>
        <mxCell id="xPqvD2hYf9ggYyajVw-1-9" value="：UserService" style="shape=umlLifeline;perimeter=lifelinePerimeter;container=1;collapsible=0;recursiveResize=0;rounded=0;shadow=0;strokeWidth=1;" parent="1" vertex="1">
          <mxGeometry x="577" y="80" width="110" height="907" as="geometry" />
        </mxCell>
        <mxCell id="xPqvD2hYf9ggYyajVw-1-10" value="" style="points=[];perimeter=orthogonalPerimeter;rounded=0;shadow=0;strokeWidth=1;" parent="xPqvD2hYf9ggYyajVw-1-9" vertex="1">
          <mxGeometry x="50" y="340" width="10" height="160" as="geometry" />
        </mxCell>
        <mxCell id="xPqvD2hYf9ggYyajVw-1-15" value="1.1，校验账号、密码是否为空" style="text;html=1;align=center;verticalAlign=middle;resizable=0;points=[];autosize=1;" parent="1" vertex="1">
          <mxGeometry x="435" y="220" width="180" height="20" as="geometry" />
        </mxCell>
        <mxCell id="xPqvD2hYf9ggYyajVw-1-27" value="3，传递账号、密码" style="verticalAlign=bottom;endArrow=block;shadow=0;strokeWidth=1;" parent="1" target="xPqvD2hYf9ggYyajVw-1-10" edge="1">
          <mxGeometry relative="1" as="geometry">
            <mxPoint x="387.25" y="420.00000000000034" as="sourcePoint" />
            <mxPoint x="612.75" y="420.00000000000034" as="targetPoint" />
          </mxGeometry>
        </mxCell>
        <mxCell id="xPqvD2hYf9ggYyajVw-1-28" value="：UserDao" style="shape=umlLifeline;perimeter=lifelinePerimeter;container=1;collapsible=0;recursiveResize=0;rounded=0;shadow=0;strokeWidth=1;" parent="1" vertex="1">
          <mxGeometry x="800" y="80" width="110" height="870" as="geometry" />
        </mxCell>
        <mxCell id="xPqvD2hYf9ggYyajVw-1-29" value="" style="points=[];perimeter=orthogonalPerimeter;rounded=0;shadow=0;strokeWidth=1;" parent="xPqvD2hYf9ggYyajVw-1-28" vertex="1">
          <mxGeometry x="50" y="380" width="10" height="120" as="geometry" />
        </mxCell>
        <mxCell id="xPqvD2hYf9ggYyajVw-1-30" value="4，传递账号、密码" style="verticalAlign=bottom;endArrow=block;shadow=0;strokeWidth=1;" parent="1" edge="1">
          <mxGeometry relative="1" as="geometry">
            <mxPoint x="640" y="460" as="sourcePoint" />
            <mxPoint x="850" y="460" as="targetPoint" />
          </mxGeometry>
        </mxCell>
        <mxCell id="xPqvD2hYf9ggYyajVw-1-31" value="：数据库" style="shape=umlLifeline;perimeter=lifelinePerimeter;container=1;collapsible=0;recursiveResize=0;rounded=0;shadow=0;strokeWidth=1;" parent="1" vertex="1">
          <mxGeometry x="1010" y="80" width="110" height="890" as="geometry" />
        </mxCell>
        <mxCell id="xPqvD2hYf9ggYyajVw-1-32" value="" style="points=[];perimeter=orthogonalPerimeter;rounded=0;shadow=0;strokeWidth=1;" parent="xPqvD2hYf9ggYyajVw-1-31" vertex="1">
          <mxGeometry x="50" y="430" width="10" height="70" as="geometry" />
        </mxCell>
        <mxCell id="xPqvD2hYf9ggYyajVw-1-33" value="5，查询用户登录信息" style="verticalAlign=bottom;endArrow=block;shadow=0;strokeWidth=1;" parent="1" edge="1">
          <mxGeometry relative="1" as="geometry">
            <mxPoint x="860" y="510" as="sourcePoint" />
            <mxPoint x="1060" y="510" as="targetPoint" />
          </mxGeometry>
        </mxCell>
        <mxCell id="xPqvD2hYf9ggYyajVw-1-34" value="" style="points=[];perimeter=orthogonalPerimeter;rounded=0;shadow=0;strokeWidth=1;" parent="1" vertex="1">
          <mxGeometry x="385" y="580" width="10" height="220" as="geometry" />
        </mxCell>
        <mxCell id="xPqvD2hYf9ggYyajVw-1-36" value="&lt;span style=&quot;background-color: rgb(255 , 255 , 255)&quot;&gt;6，返回登录信息&lt;/span&gt;" style="html=1;verticalAlign=bottom;labelBackgroundColor=none;endArrow=open;endFill=0;dashed=1;" parent="1" target="3nuBFxr9cyL0pnOWT2aG-5" edge="1">
          <mxGeometry width="160" relative="1" as="geometry">
            <mxPoint x="1059.4299999999998" y="580" as="sourcePoint" />
            <mxPoint x="830.0014285714286" y="580" as="targetPoint" />
          </mxGeometry>
        </mxCell>
        <mxCell id="xPqvD2hYf9ggYyajVw-1-37" value="" style="endArrow=classic;html=1;edgeStyle=elbowEdgeStyle;jumpStyle=none;rounded=0;" parent="1" edge="1">
          <mxGeometry width="50" height="50" relative="1" as="geometry">
            <mxPoint x="395" y="640" as="sourcePoint" />
            <mxPoint x="395" y="698" as="targetPoint" />
            <Array as="points">
              <mxPoint x="440" y="640" />
              <mxPoint x="450" y="668" />
            </Array>
          </mxGeometry>
        </mxCell>
        <mxCell id="xPqvD2hYf9ggYyajVw-1-38" value="6.1，写入Session" style="text;html=1;align=center;verticalAlign=middle;resizable=0;points=[];autosize=1;" parent="1" vertex="1">
          <mxGeometry x="450" y="660" width="110" height="20" as="geometry" />
        </mxCell>
        <mxCell id="xPqvD2hYf9ggYyajVw-1-39" value="&lt;span style=&quot;color: rgb(51 , 153 , 255)&quot;&gt;Alt&lt;/span&gt;" style="shape=umlFrame;whiteSpace=wrap;html=1;width=71;height=30;boundedLbl=1;verticalAlign=middle;align=left;spacingLeft=5;strokeColor=#66B2FF;" parent="1" vertex="1">
          <mxGeometry x="172.5" y="630" width="397.5" height="190" as="geometry" />
        </mxCell>
        <mxCell id="xPqvD2hYf9ggYyajVw-1-41" value="[登录失败]" style="text;html=1;strokeColor=none;fillColor=none;align=center;verticalAlign=middle;whiteSpace=wrap;rounded=0;fontColor=#007FFF;" parent="1" vertex="1">
          <mxGeometry x="172.5" y="750" width="75" height="20" as="geometry" />
        </mxCell>
        <mxCell id="xPqvD2hYf9ggYyajVw-1-42" value="[登录成功]" style="text;html=1;strokeColor=none;fillColor=none;align=center;verticalAlign=middle;whiteSpace=wrap;rounded=0;fontColor=#007FFF;" parent="1" vertex="1">
          <mxGeometry x="172.5" y="660" width="75" height="20" as="geometry" />
        </mxCell>
        <mxCell id="xPqvD2hYf9ggYyajVw-1-45" value="&lt;span style=&quot;background-color: rgb(255 , 255 , 255)&quot;&gt;7，返回首页&lt;/span&gt;" style="html=1;verticalAlign=bottom;labelBackgroundColor=none;endArrow=open;endFill=0;dashed=1;" parent="1" edge="1">
          <mxGeometry width="160" relative="1" as="geometry">
            <mxPoint x="385" y="724" as="sourcePoint" />
            <mxPoint x="155.57142857142844" y="724" as="targetPoint" />
          </mxGeometry>
        </mxCell>
        <mxCell id="xPqvD2hYf9ggYyajVw-1-47" value="" style="endArrow=none;dashed=1;dashPattern=1 3;strokeWidth=2;exitX=0.006;exitY=0.71;exitDx=0;exitDy=0;exitPerimeter=0;strokeColor=#007FFF;entryX=1;entryY=0.579;entryDx=0;entryDy=0;entryPerimeter=0;" parent="1" target="xPqvD2hYf9ggYyajVw-1-39" edge="1">
          <mxGeometry width="50" height="50" relative="1" as="geometry">
            <mxPoint x="170.31000000000012" y="741.74" as="sourcePoint" />
            <mxPoint x="500" y="740" as="targetPoint" />
          </mxGeometry>
        </mxCell>
        <mxCell id="xPqvD2hYf9ggYyajVw-1-49" value="&lt;span style=&quot;background-color: rgb(255 , 255 , 255)&quot;&gt;8，返回登录界面，提示失败信息&lt;/span&gt;" style="html=1;verticalAlign=bottom;labelBackgroundColor=none;endArrow=open;endFill=0;dashed=1;" parent="1" edge="1">
          <mxGeometry width="160" relative="1" as="geometry">
            <mxPoint x="395" y="800" as="sourcePoint" />
            <mxPoint x="160" y="800" as="targetPoint" />
          </mxGeometry>
        </mxCell>
      </root>
    </mxGraphModel>
  </diagram>
</mxfile>
